<?xml version="1.0"?>
<svg version="1.1" id="圖層_1" xmlns="http://www.w3.org/2000/svg" x="0" y="0" viewBox="0 0 100 100" xml:space="preserve"><path fill="#f47e60" d="M79.2 22h14v14h-14z"/><path fill="#f8b26a" d="M79.2 43h14v14h-14z"/><path fill="#abbd81" d="M79.2 64h14v14h-14z"/><path d="M77.2 92.5H22.8c-5 0-9-4-9-9v-67c0-5 4-9 9-9h54.3c5 0 9 4 9 9v67c.1 5-4 9-8.9 9z" fill="#e15b64"/><path d="M50.4 21H50h.4z"/><path d="M49 21h0z"/><path d="M50.1 21h-.8.8c-.1 0-.1 0 0 0z"/><path d="M59 46.2c-.5-.3-.9-.5-1.4-.7 4.4-2.9 7.1-8.2 6.1-14.1s-6-10.6-12-11.3c-8.4-1-15.5 5.6-15.5 13.8 0 4.9 2.5 9.1 6.3 11.6-.5.2-1 .4-1.4.7-5.4 3.1-9.1 9-9.1 15.7v11.9c0 3.5 2.8 6.3 6.3 6.3h23.6c3.5 0 6.3-2.8 6.3-6.3V61.9c-.1-6.7-3.7-12.6-9.2-15.7z" fill="#f5e6c8"/><metadata xmlns:d="https://loading.io/stock/"><d:name>address book</d:name><d:tags>name,id,phone,contact,friend,connection,social,network,address book,web application</d:tags><d:license>pro</d:license><d:slug>a4acl3</d:slug></metadata></svg>