<svg width="97" height="97" viewBox="0 0 97 97" fill="none" xmlns="http://www.w3.org/2000/svg">
<path d="M2.69444 73.8278H11.8556" stroke="#FF9B0C" stroke-width="5" stroke-linecap="round" stroke-linejoin="round"/>
<path d="M2.69444 48.5H11.8556" stroke="#FF9B0C" stroke-width="5" stroke-linecap="round" stroke-linejoin="round"/>
<path d="M2.69444 23.1722H11.8556" stroke="#FF9B0C" stroke-width="5" stroke-linecap="round" stroke-linejoin="round"/>
<path d="M18.8611 79.7556V17.2444" stroke="#FF9B0C" stroke-width="5" stroke-linecap="round" stroke-linejoin="round"/>
<path d="M71.6722 69.5167C67.9 68.9778 64.1278 67.3611 60.8944 65.2056C59.8167 63.5889 60.8944 57.6611 60.8944 57.6611C62.5111 56.0445 63.5889 53.8889 64.1278 51.7334C64.6667 49.0389 65.7444 43.65 66.2833 41.4945C66.2833 39.3389 66.2833 37.1834 66.2833 35.5667C64.6667 29.1 58.7389 24.7889 52.2722 25.3278C45.8056 24.25 39.3389 28.5611 37.7222 35.0278C37.7222 37.1834 37.7222 38.8 37.7222 40.9556C38.2611 43.65 39.3389 49.0389 39.8778 51.1945C39.8778 53.35 40.9556 55.5056 43.1111 57.1223C43.1111 57.1223 44.1889 63.05 43.1111 64.6667C39.3389 66.8223 35.5667 68.4389 31.2556 68.9778" stroke="#FF9B0C" stroke-width="5" stroke-linecap="round" stroke-linejoin="round"/>
<path d="M7.00555 29.1V42.5722" stroke="#1976D2" stroke-width="5" stroke-linecap="round" stroke-linejoin="round"/>
<path d="M7.00555 54.4278V67.9" stroke="#1976D2" stroke-width="5" stroke-linecap="round" stroke-linejoin="round"/>
<path d="M91.6111 46.3445C93.2278 46.3445 94.8444 45.2667 94.8444 43.1111V35.5667C94.3056 33.95 93.2278 32.3333 91.6111 32.3333" stroke="#FF9B0C" stroke-width="5" stroke-linecap="round" stroke-linejoin="round"/>
<path d="M91.6111 24.7889C93.2278 24.7889 94.8444 23.7111 94.8444 21.5556V13.4722C94.3056 11.8556 93.2278 10.7778 91.6111 10.7778" stroke="#FF9B0C" stroke-width="5" stroke-linecap="round" stroke-linejoin="round"/>
<path d="M7.00555 17.2445V8.62224C7.00555 5.3889 9.7 2.69446 12.9333 2.69446H79.2167C82.45 2.69446 85.1444 5.3889 85.1444 8.62224V88.9167C85.1444 92.15 82.45 94.8445 79.2167 94.8445H12.9333C9.7 94.8445 7.00555 92.15 7.00555 88.9167V79.7556" stroke="#1976D2" stroke-width="5" stroke-linecap="round" stroke-linejoin="round"/>
</svg>
