<svg width="18" height="18" viewBox="0 0 18 18" fill="none" xmlns="http://www.w3.org/2000/svg">
<g clip-path="url(#clip0_44_43)">
<path d="M0.5 13.7H2.2" stroke="#4285F4" stroke-linecap="round" stroke-linejoin="round"/>
<path d="M0.5 9H2.2" stroke="#4285F4" stroke-linecap="round" stroke-linejoin="round"/>
<path d="M0.5 4.29999H2.2" stroke="#4285F4" stroke-linecap="round" stroke-linejoin="round"/>
<path d="M1.30005 5.40002V7.90002" stroke="#4285F4" stroke-linecap="round" stroke-linejoin="round"/>
<path d="M1.30005 10.1V12.6" stroke="#4285F4" stroke-linecap="round" stroke-linejoin="round"/>
<path d="M17 8.6C17.3 8.6 17.6 8.4 17.6 8V6.6C17.5 6.3 17.3 6 17 6" stroke="#4285F4" stroke-linecap="round" stroke-linejoin="round"/>
<path d="M17 4.6C17.3 4.6 17.6 4.4 17.6 4V2.5C17.5 2.2 17.3 2 17 2" stroke="#4285F4" stroke-linecap="round" stroke-linejoin="round"/>
<path d="M3.5 14.8V3.20001" stroke="#4285F4" stroke-linecap="round" stroke-linejoin="round"/>
<path d="M1.30005 3.2V1.6C1.30005 1 1.80005 0.5 2.40005 0.5H14.7C15.3 0.5 15.8 1 15.8 1.6V16.5C15.8 17.1 15.3 17.6 14.7 17.6H2.40005C1.80005 17.6 1.30005 17.1 1.30005 16.5V14.8" stroke="#4285F4" stroke-linecap="round" stroke-linejoin="round"/>
<path d="M13.3 12.9C12.6 12.8 11.9 12.5 11.3 12.1C11.1 11.8 11.3 10.7 11.3 10.7C11.6 10.4 11.8 10 11.9 9.6C12 9.1 12.2 8.1 12.3 7.7C12.3 7.3 12.3 6.9 12.3 6.6C12 5.4 10.9 4.6 9.70005 4.7C8.50005 4.5 7.30005 5.3 7.00005 6.5C7.00005 6.9 7.00005 7.2 7.00005 7.6C7.10005 8.1 7.30005 9.1 7.40005 9.5C7.40005 9.9 7.60005 10.3 8.00005 10.6C8.00005 10.6 8.20005 11.7 8.00005 12C7.30005 12.4 6.60005 12.7 5.80005 12.8" stroke="#4285F4" stroke-linecap="round" stroke-linejoin="round"/>
</g>
<defs>
<clipPath id="clip0_44_43">
<rect width="18" height="18" fill="white"/>
</clipPath>
</defs>
</svg>
